<svg xmlns="http://www.w3.org/2000/svg" id="Layer_1" data-name="Layer 1" x="0px" y="0px" width="147px" height="77px" viewBox="0 0 147 77" preserveAspectRatio="xMinYMid"><defs><style>.cls-1{fill:none;}.cls-2{fill:#e98300;}.cls-3{fill:#fff;}</style></defs><title>tec-tab-rgb-orn-147-77</title><rect class="cls-2" y="1" width="147.01" height="77.17"/><path class="cls-3" d="M62.71,28.17H33.16a4.33,4.33,0,1,1,0-8.67H62.71A4.33,4.33,0,1,1,62.71,28.17ZM61.25,45.54a4.34,4.34,0,0,0-4.34-4.34H27.36a4.33,4.33,0,1,0,0,8.67H56.91A4.34,4.34,0,0,0,61.25,45.54ZM14.32,34.65A4.34,4.34,0,0,0,18.66,39H48.21a4.33,4.33,0,1,0,0-8.67H18.66A4.33,4.33,0,0,0,14.32,34.65Zm61.2-14.91-1.84,6.8h9.14L76.6,49.61h7.87l6.18-23.07h9.14l1.8-6.8H75.53Zm28.35,0-8,29.87h24L121.62,43H105.34l1.47-5.43h14.54L123,31.54H108.43l1.43-5.21h16.23l1.79-6.58h-24Zm-34.7,41A2.41,2.41,0,0,0,70.91,60l-0.66-.84a1.52,1.52,0,0,1-1,.45,0.89,0.89,0,0,1-.89-1,1.52,1.52,0,0,1,1.31-1.59,1.08,1.08,0,0,1,1,.6l1-.7a2,2,0,0,0-1.87-1A2.71,2.71,0,0,0,67,58.65,2,2,0,0,0,69.18,60.71Zm4.71,0a2.7,2.7,0,0,0,2.64-2.64A2,2,0,0,0,74.33,56a2.7,2.7,0,0,0-2.64,2.64A2,2,0,0,0,73.89,60.71Zm0.06-1.11a0.94,0.94,0,0,1-1-1,1.49,1.49,0,0,1,1.31-1.5,0.94,0.94,0,0,1,1,1A1.49,1.49,0,0,1,73.95,59.61Zm2.76,1H78L78.69,58a1,1,0,0,1,1-.91,0.54,0.54,0,0,1,.63.56,1.83,1.83,0,0,1-.06.41l-0.67,2.51h1.3l0.66-2.45a3.73,3.73,0,0,0,.15-0.87A1.24,1.24,0,0,0,80.34,56a1.89,1.89,0,0,0-1.24.56L79.22,56h-1.3Zm5.28,0h1.29L84,58a1,1,0,0,1,1-.91,0.54,0.54,0,0,1,.63.56,1.77,1.77,0,0,1-.06.41l-0.67,2.51h1.29l0.66-2.45A3.73,3.73,0,0,0,87,57.29,1.24,1.24,0,0,0,85.61,56a1.89,1.89,0,0,0-1.25.56L84.5,56H83.2Zm6.78-1.83h3.13a2.82,2.82,0,0,0,.23-1A1.72,1.72,0,0,0,90.26,56a2.74,2.74,0,0,0-2.71,2.73,1.91,1.91,0,0,0,2.11,2,2.67,2.67,0,0,0,1.75-.6l-0.59-.8a1.69,1.69,0,0,1-1,.36A0.91,0.91,0,0,1,88.77,58.78ZM88.88,58a1.38,1.38,0,0,1,1.28-1,0.65,0.65,0,0,1,.75.67,1,1,0,0,1,0,.3h-2Zm6,2.74A2.41,2.41,0,0,0,96.6,60l-0.66-.84a1.51,1.51,0,0,1-1,.45,0.89,0.89,0,0,1-.89-1,1.52,1.52,0,0,1,1.31-1.59,1.09,1.09,0,0,1,1,.6l1-.7a2,2,0,0,0-1.87-1,2.71,2.71,0,0,0-2.69,2.69A2,2,0,0,0,94.86,60.71Zm3.92,0a2.28,2.28,0,0,0,.94-0.19l0.3-1.1a1.73,1.73,0,0,1-.66.15A0.28,0.28,0,0,1,99,59.27a1,1,0,0,1,0-.2l0.51-1.92h1.07l0.3-1.11H99.84l0.31-1.17H98.86L98.55,56H98l-0.3,1.11h0.55L97.7,59.22a2.25,2.25,0,0,0-.08.57A1,1,0,0,0,98.78,60.69Zm1.93-.08H102L103.23,56h-1.3ZM102,55.54h1.36l0.32-1.15h-1.36Zm2.5,5.1h1.17l3-4.6h-1.39l-1.81,3-0.21-3H104Zm3.79,0h1.3L110.84,56h-1.29Zm1.33-5.07H111l0.31-1.15H110Zm2.85,5.15a2.27,2.27,0,0,0,.94-0.19l0.3-1.1a1.75,1.75,0,0,1-.67.15,0.28,0.28,0,0,1-.35-0.27,1,1,0,0,1,0-.2l0.51-1.92h1.07l0.3-1.11h-1.07l0.31-1.17h-1.29L112.28,56h-0.55l-0.3,1.11H112l-0.55,2.07a2.3,2.3,0,0,0-.09.57A1,1,0,0,0,112.5,60.69ZM115.13,62A2.12,2.12,0,0,0,117,60.72L119.84,56h-1.4l-1.71,3.1L116.52,56H115.2l0.56,4.6a0.55,0.55,0,0,1-.5.28,0.9,0.9,0,0,1-.5-0.18l-0.69.94A1.74,1.74,0,0,0,115.13,62Z" transform="translate(0.01 1)"/></svg>
